<?xml version="1.0" encoding="UTF-8" standalone="no"?><!DOCTYPE svg PUBLIC "-//W3C//DTD SVG 1.1//EN" "http://www.w3.org/Graphics/SVG/1.1/DTD/svg11.dtd"><svg width="100%" height="100%" viewBox="0 0 3334 2500" version="1.1" xmlns="http://www.w3.org/2000/svg" xmlns:xlink="http://www.w3.org/1999/xlink" xml:space="preserve" xmlns:serif="http://www.serif.com/" style="fill-rule:evenodd;clip-rule:evenodd;stroke-linejoin:round;stroke-miterlimit:2;"><rect id="dark" x="0" y="-416.667" width="3333.33" height="18750" style="fill:#0d1117;"/><g transform="matrix(4.16667,0,0,4.16667,-20.8333,-540.289)"><text x="40px" y="329.892px" style="font-family:'FiraCode-Medium', 'Fira Code';font-weight:500;font-size:14px;fill:#04d86d;">This mod works server side without having the mod on the client. He also works in</text><text x="40px" y="343.892px" style="font-family:'FiraCode-Medium', 'Fira Code';font-weight:500;font-size:14px;fill:#04d86d;">singleplayer.</text><text x="40px" y="369.892px" style="font-family:'FiraCode-Medium', 'Fira Code';font-weight:500;font-size:14px;fill:#04d86d;">The latest version (0.0.1+1.19.3) require</text><g transform="matrix(14,0,0,14,246.769,421.892)"></g><g transform="matrix(14,0,0,14,246.769,421.892)"></g><g transform="matrix(14,0,0,14,255.385,421.892)"><path d="M-0.301,-0.221l0.479,-0.21l-0.479,-0.211l0.038,-0.087l0.565,0.251l0,0.095l-0.565,0.251l-0.038,-0.089Zm0.025,0.25l0.564,-0.248l0.039,0.084l-0.565,0.251l-0.038,-0.087Z" style="fill:#04d86d;fill-rule:nonzero;"/></g><g transform="matrix(14,0,0,14,255.385,421.892)"></g><text x="40px" y="421.892px" style="font-family:'FiraCode-Medium', 'Fira Code';font-weight:500;font-size:14px;fill:#04d86d;">Java:                   <tspan x="264px " y="421.892px "> </tspan>17</text><g transform="matrix(14,0,0,14,246.769,447.892)"></g><g transform="matrix(14,0,0,14,246.769,447.892)"></g><g transform="matrix(14,0,0,14,255.385,447.892)"><path d="M-0.301,-0.221l0.479,-0.21l-0.479,-0.211l0.038,-0.087l0.565,0.251l0,0.095l-0.565,0.251l-0.038,-0.089Zm0.025,0.25l0.564,-0.248l0.039,0.084l-0.565,0.251l-0.038,-0.087Z" style="fill:#04d86d;fill-rule:nonzero;"/></g><g transform="matrix(14,0,0,14,255.385,447.892)"></g><text x="40px" y="447.892px" style="font-family:'FiraCode-Medium', 'Fira Code';font-weight:500;font-size:14px;fill:#04d86d;">Minecraft:              <tspan x="264px " y="447.892px "> </tspan>1.19.3</text><g transform="matrix(14,0,0,14,246.769,473.892)"></g><g transform="matrix(14,0,0,14,246.769,473.892)"></g><g transform="matrix(14,0,0,14,255.385,473.892)"><path d="M-0.301,-0.221l0.479,-0.21l-0.479,-0.211l0.038,-0.087l0.565,0.251l0,0.095l-0.565,0.251l-0.038,-0.089Zm0.025,0.25l0.564,-0.248l0.039,0.084l-0.565,0.251l-0.038,-0.087Z" style="fill:#04d86d;fill-rule:nonzero;"/></g><g transform="matrix(14,0,0,14,255.385,473.892)"></g><text x="40px" y="473.892px" style="font-family:'FiraCode-Medium', 'Fira Code';font-weight:500;font-size:14px;fill:#04d86d;">Fabric Loader:          <tspan x="264px " y="473.892px "> </tspan>0.12.13</text><g transform="matrix(14,0,0,14,126.154,499.892)"><path d="M0.215,-0.525c-0,-0.025 0.009,-0.047 0.027,-0.065c0.017,-0.018 0.039,-0.027 0.065,-0.027c0.026,0 0.048,0.009 0.066,0.027c0.018,0.018 0.026,0.04 0.026,0.065c0,0.025 -0.008,0.047 -0.026,0.065c-0.018,0.019 -0.04,0.028 -0.066,0.028c-0.026,-0 -0.048,-0.009 -0.065,-0.028c-0.018,-0.018 -0.027,-0.04 -0.027,-0.065Zm-0,0.364c-0,-0.025 0.009,-0.046 0.027,-0.064c0.017,-0.018 0.039,-0.027 0.065,-0.027c0.026,-0 0.048,0.009 0.066,0.027c0.018,0.018 0.026,0.039 0.026,0.064c0,0.026 -0.008,0.047 -0.026,0.066c-0.018,0.018 -0.04,0.027 -0.066,0.027c-0.026,-0 -0.048,-0.009 -0.065,-0.027c-0.018,-0.019 -0.027,-0.04 -0.027,-0.066Z" style="fill:#04d86d;fill-rule:nonzero;"/></g><g transform="matrix(14,0,0,14,126.154,499.892)"></g><g transform="matrix(14,0,0,14,246.769,499.892)"></g><g transform="matrix(14,0,0,14,246.769,499.892)"></g><g transform="matrix(14,0,0,14,255.385,499.892)"><path d="M-0.301,-0.221l0.479,-0.21l-0.479,-0.211l0.038,-0.087l0.565,0.251l0,0.095l-0.565,0.251l-0.038,-0.089Zm0.025,0.25l0.564,-0.248l0.039,0.084l-0.565,0.251l-0.038,-0.087Z" style="fill:#04d86d;fill-rule:nonzero;"/></g><g transform="matrix(14,0,0,14,255.385,499.892)"></g><text x="40px" y="499.892px" style="font-family:'FiraCode-Medium', 'Fira Code';font-weight:500;font-size:14px;fill:#04d86d;">Fabric API<tspan x="134.769px " y="499.892px "> </tspan>            <tspan x="264px " y="499.892px "> </tspan>0.73.0+1.19.3</text><g transform="matrix(14,0,0,14,246.769,525.892)"></g><g transform="matrix(14,0,0,14,246.769,525.892)"></g><g transform="matrix(14,0,0,14,255.385,525.892)"><path d="M-0.301,-0.221l0.479,-0.21l-0.479,-0.211l0.038,-0.087l0.565,0.251l0,0.095l-0.565,0.251l-0.038,-0.089Zm0.025,0.25l0.564,-0.248l0.039,0.084l-0.565,0.251l-0.038,-0.087Z" style="fill:#04d86d;fill-rule:nonzero;"/></g><g transform="matrix(14,0,0,14,255.385,525.892)"></g><text x="40px" y="525.892px" style="font-family:'FiraCode-Medium', 'Fira Code';font-weight:500;font-size:14px;fill:#04d86d;">Fabric Language Kotlin: <tspan x="264px " y="525.892px "> </tspan>1.9.0+kotlin.1.8.0</text><g transform="matrix(14,0,0,14,246.769,551.892)"></g><g transform="matrix(14,0,0,14,246.769,551.892)"></g><g transform="matrix(14,0,0,14,255.385,551.892)"><path d="M-0.301,-0.221l0.479,-0.21l-0.479,-0.211l0.038,-0.087l0.565,0.251l0,0.095l-0.565,0.251l-0.038,-0.089Zm0.025,0.25l0.564,-0.248l0.039,0.084l-0.565,0.251l-0.038,-0.087Z" style="fill:#04d86d;fill-rule:nonzero;"/></g><g transform="matrix(14,0,0,14,255.385,551.892)"></g><text x="40px" y="551.892px" style="font-family:'FiraCode-Medium', 'Fira Code';font-weight:500;font-size:14px;fill:#04d86d;">Silk                    <tspan x="264px " y="551.892px "> </tspan>1.9.5</text><g transform="matrix(14,0,0,14,212.308,577.892)"><path d="M0.215,-0.525c-0,-0.025 0.009,-0.047 0.027,-0.065c0.017,-0.018 0.039,-0.027 0.065,-0.027c0.026,0 0.048,0.009 0.066,0.027c0.018,0.018 0.026,0.04 0.026,0.065c0,0.025 -0.008,0.047 -0.026,0.065c-0.018,0.019 -0.04,0.028 -0.066,0.028c-0.026,-0 -0.048,-0.009 -0.065,-0.028c-0.018,-0.018 -0.027,-0.04 -0.027,-0.065Zm-0,0.364c-0,-0.025 0.009,-0.046 0.027,-0.064c0.017,-0.018 0.039,-0.027 0.065,-0.027c0.026,-0 0.048,0.009 0.066,0.027c0.018,0.018 0.026,0.039 0.026,0.064c0,0.026 -0.008,0.047 -0.026,0.066c-0.018,0.018 -0.04,0.027 -0.066,0.027c-0.026,-0 -0.048,-0.009 -0.065,-0.027c-0.018,-0.019 -0.027,-0.04 -0.027,-0.066Z" style="fill:#04d86d;fill-rule:nonzero;"/></g><g transform="matrix(14,0,0,14,212.308,577.892)"></g><g transform="matrix(14,0,0,14,246.769,577.892)"></g><g transform="matrix(14,0,0,14,246.769,577.892)"></g><g transform="matrix(14,0,0,14,255.385,577.892)"><path d="M-0.301,-0.221l0.479,-0.21l-0.479,-0.211l0.038,-0.087l0.565,0.251l0,0.095l-0.565,0.251l-0.038,-0.089Zm0.025,0.25l0.564,-0.248l0.039,0.084l-0.565,0.251l-0.038,-0.087Z" style="fill:#04d86d;fill-rule:nonzero;"/></g><g transform="matrix(14,0,0,14,255.385,577.892)"></g><text x="40px" y="577.892px" style="font-family:'FiraCode-Medium', 'Fira Code';font-weight:500;font-size:14px;fill:#04d86d;">ManyManyCommands API<tspan x="220.923px " y="577.892px "> </tspan>  <tspan x="264px " y="577.892px "> </tspan>0.0.1+1.19.3</text><text x="40px" y="629.892px" style="font-family:'FiraCode-Medium', 'Fira Code';font-weight:500;font-size:14px;fill:#04d86d;">If you download the mod from the Curseforge application, all dependencies will be</text><g transform="matrix(14,0,0,14,246.769,643.892)"></g><text x="40px" y="643.892px" style="font-family:'FiraCode-Medium', 'Fira Code';font-weight:500;font-size:14px;fill:#04d86d;">downloaded automatically</text></g><g transform="matrix(4.16667,0,0,4.16667,-20.8333,-790.785)"><text x="51.769px" y="329.892px" style="font-family:'FiraCode-Medium', 'Fira Code';font-weight:500;font-size:14px;fill:#04d86d;">A mod that add many usefull commands like «</text><text x="426.538px" y="329.892px" style="font-family:'FiraCode-Medium', 'Fira Code';font-weight:500;font-size:14px;fill:#fff8c7;">/homes</text><text x="482.538px" y="329.892px" style="font-family:'FiraCode-Medium', 'Fira Code';font-weight:500;font-size:14px;fill:#04d86d;">», «</text><text x="521.308px" y="329.892px" style="font-family:'FiraCode-Medium', 'Fira Code';font-weight:500;font-size:14px;fill:#fff8c7;">/warps</text><text x="577.308px" y="329.892px" style="font-family:'FiraCode-Medium', 'Fira Code';font-weight:500;font-size:14px;fill:#04d86d;">», «</text><text x="616.077px" y="329.892px" style="font-family:'FiraCode-Medium', 'Fira Code';font-weight:500;font-size:14px;fill:#fff8c7;">/back</text><text x="663.462px" y="329.892px" style="font-family:'FiraCode-Medium', 'Fira Code';font-weight:500;font-size:14px;fill:#04d86d;">», «</text><text x="702.231px" y="329.892px" style="font-family:'FiraCode-Medium', 'Fira Code';font-weight:500;font-size:14px;fill:#fff8c7;">/wild</text><g transform="matrix(14,0,0,14,758.231,329.892)"></g><text x="749.615px" y="329.892px" style="font-family:'FiraCode-Medium', 'Fira Code';font-weight:500;font-size:14px;fill:#04d86d;">»</text></g><g id="Title" transform="matrix(150,0,0,150,2497.44,265.333)"></g><text x="835.897px" y="265.333px" style="font-family:'FiraCode-SemiBold', 'Fira Code';font-weight:600;font-size:150px;fill:#04d86d;">Many Many Commands</text></svg>