<?xml version="1.0" encoding="UTF-8" standalone="no"?><!DOCTYPE svg PUBLIC "-//W3C//DTD SVG 1.1//EN" "http://www.w3.org/Graphics/SVG/1.1/DTD/svg11.dtd"><svg width="100%" height="100%" viewBox="0 0 3334 3334" version="1.1" xmlns="http://www.w3.org/2000/svg" xmlns:xlink="http://www.w3.org/1999/xlink" xml:space="preserve" xmlns:serif="http://www.serif.com/" style="fill-rule:evenodd;clip-rule:evenodd;stroke-linejoin:round;stroke-miterlimit:2;"><rect id="dark" x="0" y="0" width="3333.33" height="18750" style="fill:#0d1117;"/><g transform="matrix(4.16667,0,0,4.16667,-41.6667,-563.206)"><text x="40px" y="329.892px" style="font-family:'FiraCode-Medium', 'Fira Code';font-weight:500;font-size:14px;fill:#04d86d;">For example, with the «</text><text x="242.462px" y="329.892px" style="font-family:'FiraCode-Medium', 'Fira Code';font-weight:500;font-size:14px;fill:#fff8c7;">/homes</text><text x="298.462px" y="329.892px" style="font-family:'FiraCode-Medium', 'Fira Code';font-weight:500;font-size:14px;fill:#04d86d;">» command set, players can create their own personal</text><text x="40px" y="343.892px" style="font-family:'FiraCode-Medium', 'Fira Code';font-weight:500;font-size:14px;fill:#04d86d;">warps (called homes) in the world that they can teleport back to at any time.</text><text x="40px" y="357.892px" style="font-family:'FiraCode-Medium', 'Fira Code';font-weight:500;font-size:14px;fill:#04d86d;">Players can also use the «</text><text x="268.308px" y="357.892px" style="font-family:'FiraCode-Medium', 'Fira Code';font-weight:500;font-size:14px;fill:#fff8c7;">/wild</text><text x="315.692px" y="357.892px" style="font-family:'FiraCode-Medium', 'Fira Code';font-weight:500;font-size:14px;fill:#04d86d;">» command to randomly teleport to the map.</text><g transform="matrix(14,0,0,14,281.231,371.892)"><path d="M0.307,-0.774c0.023,0 0.041,0.007 0.055,0.021c0.014,0.014 0.021,0.031 0.021,0.051c-0,0.021 -0.007,0.038 -0.021,0.052c-0.014,0.014 -0.032,0.021 -0.055,0.021c-0.022,0 -0.04,-0.007 -0.054,-0.021c-0.014,-0.014 -0.021,-0.031 -0.021,-0.052c0,-0.02 0.007,-0.037 0.021,-0.051c0.014,-0.014 0.032,-0.021 0.054,-0.021Zm0.08,0.271l0,0.419l0.147,-0l0,0.084l-0.424,0l0,-0.084l0.162,-0l0,-0.334l-0.157,0l0,-0.085l0.272,0Z" style="fill:#04d86d;fill-rule:nonzero;"/></g><g transform="matrix(14,0,0,14,281.231,371.892)"></g><text x="40px" y="371.892px" style="font-family:'FiraCode-Medium', 'Fira Code';font-weight:500;font-size:14px;fill:#04d86d;">There are also a lot of conf<tspan x="289.846px " y="371.892px ">g</tspan>urable rules that allow for example to limit the</text><text x="40px" y="385.892px" style="font-family:'FiraCode-Medium', 'Fira Code';font-weight:500;font-size:14px;fill:#04d86d;">number of homes for certain players</text><text x="40px" y="437.892px" style="font-family:'FiraCode-Medium', 'Fira Code';font-weight:500;font-size:14px;fill:#04d86d;">This mod works server side without having the mod on the client. He also works in</text><text x="40px" y="451.892px" style="font-family:'FiraCode-Medium', 'Fira Code';font-weight:500;font-size:14px;fill:#04d86d;">singleplayer.</text><text x="40px" y="477.892px" style="font-family:'FiraCode-Medium', 'Fira Code';font-weight:500;font-size:14px;fill:#04d86d;">The latest version (0.0.1+1.19.3) require</text><g transform="matrix(14,0,0,14,246.769,529.892)"></g><g transform="matrix(14,0,0,14,246.769,529.892)"></g><g transform="matrix(14,0,0,14,255.385,529.892)"><path d="M-0.301,-0.221l0.479,-0.21l-0.479,-0.211l0.038,-0.087l0.565,0.251l0,0.095l-0.565,0.251l-0.038,-0.089Zm0.025,0.25l0.564,-0.248l0.039,0.084l-0.565,0.251l-0.038,-0.087Z" style="fill:#04d86d;fill-rule:nonzero;"/></g><g transform="matrix(14,0,0,14,255.385,529.892)"></g><text x="40px" y="529.892px" style="font-family:'FiraCode-Medium', 'Fira Code';font-weight:500;font-size:14px;fill:#04d86d;">Java:                   <tspan x="264px " y="529.892px "> </tspan>17</text><g transform="matrix(14,0,0,14,246.769,555.892)"></g><g transform="matrix(14,0,0,14,246.769,555.892)"></g><g transform="matrix(14,0,0,14,255.385,555.892)"><path d="M-0.301,-0.221l0.479,-0.21l-0.479,-0.211l0.038,-0.087l0.565,0.251l0,0.095l-0.565,0.251l-0.038,-0.089Zm0.025,0.25l0.564,-0.248l0.039,0.084l-0.565,0.251l-0.038,-0.087Z" style="fill:#04d86d;fill-rule:nonzero;"/></g><g transform="matrix(14,0,0,14,255.385,555.892)"></g><text x="40px" y="555.892px" style="font-family:'FiraCode-Medium', 'Fira Code';font-weight:500;font-size:14px;fill:#04d86d;">Minecraft:              <tspan x="264px " y="555.892px "> </tspan>1.19.3</text><g transform="matrix(14,0,0,14,246.769,581.892)"></g><g transform="matrix(14,0,0,14,246.769,581.892)"></g><g transform="matrix(14,0,0,14,255.385,581.892)"><path d="M-0.301,-0.221l0.479,-0.21l-0.479,-0.211l0.038,-0.087l0.565,0.251l0,0.095l-0.565,0.251l-0.038,-0.089Zm0.025,0.25l0.564,-0.248l0.039,0.084l-0.565,0.251l-0.038,-0.087Z" style="fill:#04d86d;fill-rule:nonzero;"/></g><g transform="matrix(14,0,0,14,255.385,581.892)"></g><text x="40px" y="581.892px" style="font-family:'FiraCode-Medium', 'Fira Code';font-weight:500;font-size:14px;fill:#04d86d;">Fabric Loader:          <tspan x="264px " y="581.892px "> </tspan>0.12.14</text><g transform="matrix(14,0,0,14,126.154,607.892)"><path d="M0.215,-0.525c-0,-0.025 0.009,-0.047 0.027,-0.065c0.017,-0.018 0.039,-0.027 0.065,-0.027c0.026,0 0.048,0.009 0.066,0.027c0.018,0.018 0.026,0.04 0.026,0.065c0,0.025 -0.008,0.047 -0.026,0.065c-0.018,0.019 -0.04,0.028 -0.066,0.028c-0.026,-0 -0.048,-0.009 -0.065,-0.028c-0.018,-0.018 -0.027,-0.04 -0.027,-0.065Zm-0,0.364c-0,-0.025 0.009,-0.046 0.027,-0.064c0.017,-0.018 0.039,-0.027 0.065,-0.027c0.026,-0 0.048,0.009 0.066,0.027c0.018,0.018 0.026,0.039 0.026,0.064c0,0.026 -0.008,0.047 -0.026,0.066c-0.018,0.018 -0.04,0.027 -0.066,0.027c-0.026,-0 -0.048,-0.009 -0.065,-0.027c-0.018,-0.019 -0.027,-0.04 -0.027,-0.066Z" style="fill:#04d86d;fill-rule:nonzero;"/></g><g transform="matrix(14,0,0,14,126.154,607.892)"></g><g transform="matrix(14,0,0,14,246.769,607.892)"></g><g transform="matrix(14,0,0,14,246.769,607.892)"></g><g transform="matrix(14,0,0,14,255.385,607.892)"><path d="M-0.301,-0.221l0.479,-0.21l-0.479,-0.211l0.038,-0.087l0.565,0.251l0,0.095l-0.565,0.251l-0.038,-0.089Zm0.025,0.25l0.564,-0.248l0.039,0.084l-0.565,0.251l-0.038,-0.087Z" style="fill:#04d86d;fill-rule:nonzero;"/></g><g transform="matrix(14,0,0,14,255.385,607.892)"></g><text x="40px" y="607.892px" style="font-family:'FiraCode-Medium', 'Fira Code';font-weight:500;font-size:14px;fill:#04d86d;">Fabric API<tspan x="134.769px " y="607.892px "> </tspan>            <tspan x="264px " y="607.892px "> </tspan>0.73.2+1.19.3</text><g transform="matrix(14,0,0,14,246.769,633.892)"></g><g transform="matrix(14,0,0,14,246.769,633.892)"></g><g transform="matrix(14,0,0,14,255.385,633.892)"><path d="M-0.301,-0.221l0.479,-0.21l-0.479,-0.211l0.038,-0.087l0.565,0.251l0,0.095l-0.565,0.251l-0.038,-0.089Zm0.025,0.25l0.564,-0.248l0.039,0.084l-0.565,0.251l-0.038,-0.087Z" style="fill:#04d86d;fill-rule:nonzero;"/></g><g transform="matrix(14,0,0,14,255.385,633.892)"></g><text x="40px" y="633.892px" style="font-family:'FiraCode-Medium', 'Fira Code';font-weight:500;font-size:14px;fill:#04d86d;">Fabric Language Kotlin: <tspan x="264px " y="633.892px "> </tspan>1.9.1+kotlin.1.8.10</text><g transform="matrix(14,0,0,14,246.769,659.892)"></g><g transform="matrix(14,0,0,14,246.769,659.892)"></g><g transform="matrix(14,0,0,14,255.385,659.892)"><path d="M-0.301,-0.221l0.479,-0.21l-0.479,-0.211l0.038,-0.087l0.565,0.251l0,0.095l-0.565,0.251l-0.038,-0.089Zm0.025,0.25l0.564,-0.248l0.039,0.084l-0.565,0.251l-0.038,-0.087Z" style="fill:#04d86d;fill-rule:nonzero;"/></g><g transform="matrix(14,0,0,14,255.385,659.892)"></g><text x="40px" y="659.892px" style="font-family:'FiraCode-Medium', 'Fira Code';font-weight:500;font-size:14px;fill:#04d86d;">Silk                    <tspan x="264px " y="659.892px "> </tspan>1.9.5</text><g transform="matrix(14,0,0,14,212.308,685.892)"><path d="M0.215,-0.525c-0,-0.025 0.009,-0.047 0.027,-0.065c0.017,-0.018 0.039,-0.027 0.065,-0.027c0.026,0 0.048,0.009 0.066,0.027c0.018,0.018 0.026,0.04 0.026,0.065c0,0.025 -0.008,0.047 -0.026,0.065c-0.018,0.019 -0.04,0.028 -0.066,0.028c-0.026,-0 -0.048,-0.009 -0.065,-0.028c-0.018,-0.018 -0.027,-0.04 -0.027,-0.065Zm-0,0.364c-0,-0.025 0.009,-0.046 0.027,-0.064c0.017,-0.018 0.039,-0.027 0.065,-0.027c0.026,-0 0.048,0.009 0.066,0.027c0.018,0.018 0.026,0.039 0.026,0.064c0,0.026 -0.008,0.047 -0.026,0.066c-0.018,0.018 -0.04,0.027 -0.066,0.027c-0.026,-0 -0.048,-0.009 -0.065,-0.027c-0.018,-0.019 -0.027,-0.04 -0.027,-0.066Z" style="fill:#04d86d;fill-rule:nonzero;"/></g><g transform="matrix(14,0,0,14,212.308,685.892)"></g><g transform="matrix(14,0,0,14,246.769,685.892)"></g><g transform="matrix(14,0,0,14,246.769,685.892)"></g><g transform="matrix(14,0,0,14,255.385,685.892)"><path d="M-0.301,-0.221l0.479,-0.21l-0.479,-0.211l0.038,-0.087l0.565,0.251l0,0.095l-0.565,0.251l-0.038,-0.089Zm0.025,0.25l0.564,-0.248l0.039,0.084l-0.565,0.251l-0.038,-0.087Z" style="fill:#04d86d;fill-rule:nonzero;"/></g><g transform="matrix(14,0,0,14,255.385,685.892)"></g><text x="40px" y="685.892px" style="font-family:'FiraCode-Medium', 'Fira Code';font-weight:500;font-size:14px;fill:#04d86d;">ManyManyCommands API<tspan x="220.923px " y="685.892px "> </tspan>  <tspan x="264px " y="685.892px "> </tspan>0.0.1+1.19.3</text><text x="40px" y="737.892px" style="font-family:'FiraCode-Medium', 'Fira Code';font-weight:500;font-size:14px;fill:#04d86d;">If you download the mod from the Curseforge application, all dependencies will be</text><text x="40px" y="751.892px" style="font-family:'FiraCode-Medium', 'Fira Code';font-weight:500;font-size:14px;fill:#04d86d;">downloaded automatically</text><text x="40px" y="803.892px" style="font-family:'FiraCode-Medium', 'Fira Code';font-weight:500;font-size:14px;fill:#04d86d;">Also, I recommend using the « Luckperms » and « Fabric Perms Hider Kotlined » mods.</text><text x="40px" y="817.892px" style="font-family:'FiraCode-Medium', 'Fira Code';font-weight:500;font-size:14px;fill:#04d86d;">You will be able to disable the commands you don&apos;t want.</text><text x="40px" y="869.892px" style="font-family:'FiraCode-Medium', 'Fira Code';font-weight:500;font-size:14px;fill:#ff1717;">Be careful, if you update the mod, it is possible that the name or the content of</text><g transform="matrix(14,0,0,14,108.923,883.892)"><path d="M0.307,-0.774c0.023,0 0.041,0.007 0.055,0.021c0.014,0.014 0.021,0.031 0.021,0.051c-0,0.021 -0.007,0.038 -0.021,0.052c-0.014,0.014 -0.032,0.021 -0.055,0.021c-0.022,0 -0.04,-0.007 -0.054,-0.021c-0.014,-0.014 -0.021,-0.031 -0.021,-0.052c0,-0.02 0.007,-0.037 0.021,-0.051c0.014,-0.014 0.032,-0.021 0.054,-0.021Zm0.08,0.271l0,0.419l0.147,-0l0,0.084l-0.424,0l0,-0.084l0.162,-0l0,-0.334l-0.157,0l0,-0.085l0.272,0Z" style="fill:#ff1717;fill-rule:nonzero;"/></g><g transform="matrix(14,0,0,14,108.923,883.892)"></g><g transform="matrix(14,0,0,14,203.692,883.892)"><path d="M0.307,-0.774c0.023,0 0.041,0.007 0.055,0.021c0.014,0.014 0.021,0.031 0.021,0.051c-0,0.021 -0.007,0.038 -0.021,0.052c-0.014,0.014 -0.032,0.021 -0.055,0.021c-0.022,0 -0.04,-0.007 -0.054,-0.021c-0.014,-0.014 -0.021,-0.031 -0.021,-0.052c0,-0.02 0.007,-0.037 0.021,-0.051c0.014,-0.014 0.032,-0.021 0.054,-0.021Zm0.08,0.271l0,0.419l0.147,-0l0,0.084l-0.424,0l0,-0.084l0.162,-0l0,-0.334l-0.157,0l0,-0.085l0.272,0Z" style="fill:#ff1717;fill-rule:nonzero;"/></g><g transform="matrix(14,0,0,14,203.692,883.892)"></g><text x="40px" y="883.892px" style="font-family:'FiraCode-Medium', 'Fira Code';font-weight:500;font-size:14px;fill:#ff1717;">the conf<tspan x="117.538px " y="883.892px ">g</tspan>uration f<tspan x="212.308px " y="883.892px ">l</tspan>es (json5) has changed, which could make the server crash at</text><g transform="matrix(14,0,0,14,703.385,897.892)"></g><text x="40px" y="897.892px" style="font-family:'FiraCode-Medium', 'Fira Code';font-weight:500;font-size:14px;fill:#ff1717;">startup. Always make a backup of the manymanycommands folder before updating!</text></g><g transform="matrix(4.16667,0,0,4.16667,-41.6667,-790.785)"><text x="40px" y="329.892px" style="font-family:'FiraCode-Medium', 'Fira Code';font-weight:500;font-size:14px;fill:#04d86d;">A mod that add many usefull commands like «</text><text x="414.769px" y="329.892px" style="font-family:'FiraCode-Medium', 'Fira Code';font-weight:500;font-size:14px;fill:#fff8c7;">/homes</text><text x="470.769px" y="329.892px" style="font-family:'FiraCode-Medium', 'Fira Code';font-weight:500;font-size:14px;fill:#04d86d;">», «</text><text x="509.538px" y="329.892px" style="font-family:'FiraCode-Medium', 'Fira Code';font-weight:500;font-size:14px;fill:#fff8c7;">/warps</text><text x="565.538px" y="329.892px" style="font-family:'FiraCode-Medium', 'Fira Code';font-weight:500;font-size:14px;fill:#04d86d;">», «</text><text x="604.308px" y="329.892px" style="font-family:'FiraCode-Medium', 'Fira Code';font-weight:500;font-size:14px;fill:#fff8c7;">/back</text><text x="651.692px" y="329.892px" style="font-family:'FiraCode-Medium', 'Fira Code';font-weight:500;font-size:14px;fill:#04d86d;">»,</text><text x="40px" y="343.892px" style="font-family:'FiraCode-Medium', 'Fira Code';font-weight:500;font-size:14px;fill:#04d86d;">«</text><text x="52.923px" y="343.892px" style="font-family:'FiraCode-Medium', 'Fira Code';font-weight:500;font-size:14px;fill:#fff8c7;">/wild</text><text x="100.308px" y="343.892px" style="font-family:'FiraCode-Medium', 'Fira Code';font-weight:500;font-size:14px;fill:#04d86d;">», «</text><text x="139.077px" y="343.892px" style="font-family:'FiraCode-Medium', 'Fira Code';font-weight:500;font-size:14px;fill:#fff8c7;">/tpa</text><g transform="matrix(14,0,0,14,190.769,343.892)"></g><text x="182.154px" y="343.892px" style="font-family:'FiraCode-Medium', 'Fira Code';font-weight:500;font-size:14px;fill:#04d86d;">»</text></g><g id="Title" transform="matrix(150,0,0,150,2497.44,265.333)"></g><text x="835.897px" y="265.333px" style="font-family:'FiraCode-SemiBold', 'Fira Code';font-weight:600;font-size:150px;fill:#04d86d;">Many Many Commands</text></svg>